<svg xmlns="http://www.w3.org/2000/svg" xmlns:xlink="http://www.w3.org/1999/xlink" width="1920" zoomAndPan="magnify" viewBox="0 0 1440 809.999993" height="1080" preserveAspectRatio="xMidYMid meet" version="1.0"><defs><g/><clipPath id="6d3ace7c48"><path d="M 104 325.386719 L 196.535156 325.386719 L 196.535156 465.691406 L 104 465.691406 Z M 104 325.386719 " clip-rule="nonzero"/></clipPath></defs><g fill="#000000" fill-opacity="1"><g transform="translate(229.249434, 447.189883)"><g><path d="M 57.46875 0 L 44 0 L 44 -57.46875 L 35.46875 -26.9375 L 25.0625 -26.9375 L 16.65625 -57.46875 L 16.65625 0 L 3.1875 0 L 3.1875 -84.921875 L 19.203125 -84.921875 L 30.265625 -46.53125 L 41.328125 -84.921875 L 57.46875 -84.921875 Z M 57.46875 0 "/></g></g></g><g fill="#000000" fill-opacity="1"><g transform="translate(302.00006, 447.189883)"><g><path d="M 60.125 -60.65625 L 33.96875 11.84375 C 32.019531 17.09375 29.175781 20.691406 25.4375 22.640625 C 21.707031 24.597656 17.265625 25.578125 12.109375 25.578125 C 10.328125 25.578125 8.414062 25.398438 6.375 25.046875 C 4.332031 24.703125 2.207031 24.117188 0 23.296875 L 2.796875 10.9375 C 4.660156 11.625 6.375 12.109375 7.9375 12.390625 C 9.5 12.679688 10.890625 12.828125 12.109375 12.828125 C 16.140625 12.828125 18.894531 11.046875 20.375 7.484375 L 22.78125 1.625 L -0.390625 -60.65625 L 13.59375 -60.65625 L 30.265625 -14.765625 L 45.6875 -60.65625 Z M 60.125 -60.65625 "/></g></g></g><g fill="#000000" fill-opacity="1"><g transform="translate(374.750686, 447.189883)"><g><path d="M 58.5 -23.296875 C 58.5 -19.390625 57.835938 -15.90625 56.515625 -12.84375 C 55.191406 -9.789062 53.390625 -7.203125 51.109375 -5.078125 C 48.835938 -2.953125 46.128906 -1.320312 42.984375 -0.1875 C 39.835938 0.9375 36.488281 1.5 32.9375 1.5 C 28.9375 1.5 25.332031 0.785156 22.125 -0.640625 C 18.914062 -2.078125 16.160156 -4.445312 13.859375 -7.75 L 13.859375 0 L 1.75 0 L 1.75 -27.71875 L 13.859375 -27.71875 C 13.859375 -24.945312 14.347656 -22.5 15.328125 -20.375 C 16.304688 -18.25 17.597656 -16.457031 19.203125 -15 C 20.804688 -13.550781 22.671875 -12.445312 24.796875 -11.6875 C 26.921875 -10.925781 29.175781 -10.546875 31.5625 -10.546875 C 35.59375 -10.546875 38.84375 -11.476562 41.3125 -13.34375 C 43.789062 -15.207031 45.03125 -18.175781 45.03125 -22.25 C 45.03125 -24.382812 44.648438 -26.207031 43.890625 -27.71875 C 43.128906 -29.238281 42.046875 -30.59375 40.640625 -31.78125 C 39.234375 -32.976562 37.507812 -34.019531 35.46875 -34.90625 C 33.425781 -35.800781 31.101562 -36.75 28.5 -37.75 C 25.425781 -38.789062 22.347656 -39.960938 19.265625 -41.265625 C 16.179688 -42.566406 13.425781 -44.171875 11 -46.078125 C 8.570312 -47.984375 6.597656 -50.332031 5.078125 -53.125 C 3.554688 -55.925781 2.796875 -59.457031 2.796875 -63.71875 C 2.796875 -67.445312 3.476562 -70.707031 4.84375 -73.5 C 6.207031 -76.300781 8.03125 -78.65625 10.3125 -80.5625 C 12.59375 -82.476562 15.238281 -83.921875 18.25 -84.890625 C 21.269531 -85.867188 24.472656 -86.359375 27.859375 -86.359375 C 31.753906 -86.359375 35.101562 -85.53125 37.90625 -83.875 C 40.707031 -82.226562 42.867188 -80.039062 44.390625 -77.3125 L 44.390625 -84.921875 L 56.484375 -84.921875 L 56.484375 -58.5 L 44.390625 -58.5 C 44.390625 -63.488281 43.078125 -67.382812 40.453125 -70.1875 C 37.828125 -72.988281 34.300781 -74.390625 29.875 -74.390625 C 25.96875 -74.390625 22.722656 -73.476562 20.140625 -71.65625 C 17.554688 -69.832031 16.265625 -67.269531 16.265625 -63.96875 C 16.265625 -62.28125 16.597656 -60.835938 17.265625 -59.640625 C 17.941406 -58.453125 18.921875 -57.367188 20.203125 -56.390625 C 21.484375 -55.410156 23.097656 -54.5 25.046875 -53.65625 C 27.003906 -52.8125 29.265625 -51.890625 31.828125 -50.890625 C 35.035156 -49.765625 38.222656 -48.484375 41.390625 -47.046875 C 44.554688 -45.617188 47.394531 -43.863281 49.90625 -41.78125 C 52.425781 -39.695312 54.488281 -37.164062 56.09375 -34.1875 C 57.695312 -31.21875 58.5 -27.585938 58.5 -23.296875 Z M 58.5 -23.296875 "/></g></g></g><g fill="#000000" fill-opacity="1"><g transform="translate(447.501313, 447.189883)"><g><path d="M 12.359375 -25.1875 C 13.015625 -21.019531 15 -17.554688 18.3125 -14.796875 C 21.632812 -12.046875 26.09375 -10.671875 31.6875 -10.671875 C 36.070312 -10.671875 39.878906 -11.351562 43.109375 -12.71875 C 46.347656 -14.082031 49.140625 -15.894531 51.484375 -18.15625 L 58.375 -8.65625 C 54.46875 -4.75 50.332031 -2.078125 45.96875 -0.640625 C 41.613281 0.785156 36.851562 1.5 31.6875 1.5 C 27.007812 1.5 22.648438 0.71875 18.609375 -0.84375 C 14.578125 -2.40625 11.082031 -4.582031 8.125 -7.375 C 5.175781 -10.175781 2.867188 -13.507812 1.203125 -17.375 C -0.460938 -21.238281 -1.296875 -25.535156 -1.296875 -30.265625 C -1.296875 -34.859375 -0.53125 -39.097656 1 -42.984375 C 2.539062 -46.867188 4.710938 -50.226562 7.515625 -53.0625 C 10.316406 -55.90625 13.664062 -58.117188 17.5625 -59.703125 C 21.46875 -61.285156 25.785156 -62.078125 30.515625 -62.078125 C 35.421875 -62.078125 39.867188 -61.242188 43.859375 -59.578125 C 47.847656 -57.910156 51.265625 -55.492188 54.109375 -52.328125 C 56.953125 -49.160156 59.175781 -45.285156 60.78125 -40.703125 C 62.382812 -36.128906 63.1875 -30.957031 63.1875 -25.1875 Z M 47.96875 -37.03125 C 47.269531 -40.9375 45.25 -44.070312 41.90625 -46.4375 C 38.570312 -48.800781 34.773438 -49.984375 30.515625 -49.984375 C 26.265625 -49.984375 22.445312 -48.800781 19.0625 -46.4375 C 15.675781 -44.070312 13.640625 -40.9375 12.953125 -37.03125 Z M 47.96875 -37.03125 "/></g></g></g><g fill="#000000" fill-opacity="1"><g transform="translate(520.251939, 447.189883)"><g><path d="M 58.375 -8.65625 C 54.46875 -4.75 50.351562 -2.078125 46.03125 -0.640625 C 41.71875 0.785156 37.046875 1.5 32.015625 1.5 C 26.941406 1.5 22.332031 0.738281 18.1875 -0.78125 C 14.039062 -2.300781 10.523438 -4.4375 7.640625 -7.1875 C 4.753906 -9.945312 2.539062 -13.273438 1 -17.171875 C -0.53125 -21.078125 -1.296875 -25.441406 -1.296875 -30.265625 C -1.296875 -34.859375 -0.53125 -39.117188 1 -43.046875 C 2.539062 -46.972656 4.625 -50.332031 7.25 -53.125 C 9.875 -55.925781 12.960938 -58.117188 16.515625 -59.703125 C 20.078125 -61.285156 23.859375 -62.078125 27.859375 -62.078125 C 32.015625 -62.078125 35.632812 -61.207031 38.71875 -59.46875 C 41.800781 -57.738281 44.035156 -55.207031 45.421875 -51.875 L 45.421875 -60.65625 L 57.46875 -60.65625 L 57.46875 -32.40625 L 45.421875 -32.40625 C 45.421875 -37.738281 43.957031 -42 41.03125 -45.1875 C 38.101562 -48.382812 34.296875 -49.984375 29.609375 -49.984375 C 27.742188 -49.984375 25.78125 -49.601562 23.71875 -48.84375 C 21.65625 -48.082031 19.765625 -46.898438 18.046875 -45.296875 C 16.335938 -43.691406 14.921875 -41.648438 13.796875 -39.171875 C 12.671875 -36.703125 12.109375 -33.734375 12.109375 -30.265625 C 12.109375 -26.878906 12.648438 -23.957031 13.734375 -21.5 C 14.816406 -19.050781 16.234375 -17.035156 17.984375 -15.453125 C 19.742188 -13.867188 21.828125 -12.675781 24.234375 -11.875 C 26.648438 -11.070312 29.132812 -10.671875 31.6875 -10.671875 C 36.070312 -10.671875 39.878906 -11.351562 43.109375 -12.71875 C 46.347656 -14.082031 49.140625 -15.894531 51.484375 -18.15625 Z M 58.375 -8.65625 "/></g></g></g><g fill="#000000" fill-opacity="1"><g transform="translate(593.002545, 447.189883)"><g><path d="M 3.1875 -60.65625 L 16.65625 -60.65625 L 16.65625 -23.171875 C 16.65625 -18.484375 17.546875 -15.226562 19.328125 -13.40625 C 21.109375 -11.582031 23.691406 -10.671875 27.078125 -10.671875 C 32.015625 -10.671875 36.066406 -12.6875 39.234375 -16.71875 C 42.410156 -20.757812 44 -26.335938 44 -33.453125 L 44 -60.65625 L 57.46875 -60.65625 L 57.46875 0 L 44 0 L 44 -15.15625 C 42.644531 -9.957031 40.144531 -5.878906 36.5 -2.921875 C 32.863281 0.0234375 28.375 1.5 23.03125 1.5 C 16.832031 1.5 11.972656 -0.523438 8.453125 -4.578125 C 4.941406 -8.640625 3.1875 -14.835938 3.1875 -23.171875 Z M 3.1875 -60.65625 "/></g></g></g><g fill="#000000" fill-opacity="1"><g transform="translate(665.75315, 447.189883)"><g><path d="M 59.15625 -46.265625 C 57.550781 -47.046875 55.910156 -47.640625 54.234375 -48.046875 C 52.566406 -48.460938 50.648438 -48.671875 48.484375 -48.671875 C 45.492188 -48.671875 42.6875 -48.226562 40.0625 -47.34375 C 37.4375 -46.457031 35.164062 -45.125 33.25 -43.34375 C 31.34375 -41.5625 29.859375 -39.335938 28.796875 -36.671875 C 27.734375 -34.003906 27.203125 -30.847656 27.203125 -27.203125 L 27.203125 -12.109375 L 40.796875 -12.109375 L 40.796875 0 L 0 0 L 0 -12.109375 L 13.734375 -12.109375 L 13.734375 -48.484375 L 0 -48.484375 L 0 -60.65625 L 27.203125 -60.65625 L 27.203125 -45.421875 C 29.410156 -51.492188 32.671875 -55.785156 36.984375 -58.296875 C 41.304688 -60.816406 46.441406 -62.078125 52.390625 -62.078125 C 54.253906 -62.078125 56.203125 -61.878906 58.234375 -61.484375 C 60.273438 -61.097656 62.273438 -60.410156 64.234375 -59.421875 Z M 59.15625 -46.265625 "/></g></g></g><g fill="#000000" fill-opacity="1"><g transform="translate(738.503756, 447.189883)"><g><path d="M 12.359375 -25.1875 C 13.015625 -21.019531 15 -17.554688 18.3125 -14.796875 C 21.632812 -12.046875 26.09375 -10.671875 31.6875 -10.671875 C 36.070312 -10.671875 39.878906 -11.351562 43.109375 -12.71875 C 46.347656 -14.082031 49.140625 -15.894531 51.484375 -18.15625 L 58.375 -8.65625 C 54.46875 -4.75 50.332031 -2.078125 45.96875 -0.640625 C 41.613281 0.785156 36.851562 1.5 31.6875 1.5 C 27.007812 1.5 22.648438 0.71875 18.609375 -0.84375 C 14.578125 -2.40625 11.082031 -4.582031 8.125 -7.375 C 5.175781 -10.175781 2.867188 -13.507812 1.203125 -17.375 C -0.460938 -21.238281 -1.296875 -25.535156 -1.296875 -30.265625 C -1.296875 -34.859375 -0.53125 -39.097656 1 -42.984375 C 2.539062 -46.867188 4.710938 -50.226562 7.515625 -53.0625 C 10.316406 -55.90625 13.664062 -58.117188 17.5625 -59.703125 C 21.46875 -61.285156 25.785156 -62.078125 30.515625 -62.078125 C 35.421875 -62.078125 39.867188 -61.242188 43.859375 -59.578125 C 47.847656 -57.910156 51.265625 -55.492188 54.109375 -52.328125 C 56.953125 -49.160156 59.175781 -45.285156 60.78125 -40.703125 C 62.382812 -36.128906 63.1875 -30.957031 63.1875 -25.1875 Z M 47.96875 -37.03125 C 47.269531 -40.9375 45.25 -44.070312 41.90625 -46.4375 C 38.570312 -48.800781 34.773438 -49.984375 30.515625 -49.984375 C 26.265625 -49.984375 22.445312 -48.800781 19.0625 -46.4375 C 15.675781 -44.070312 13.640625 -40.9375 12.953125 -37.03125 Z M 47.96875 -37.03125 "/></g></g></g><g fill="#000000" fill-opacity="1"><g transform="translate(811.254361, 447.189883)"><g><path d="M 60.65625 -59.546875 C 60.65625 -51.046875 58.070312 -44.722656 52.90625 -40.578125 C 47.75 -36.429688 40.546875 -34.359375 31.296875 -34.359375 L 16.65625 -34.359375 L 16.65625 0 L 3.1875 0 L 3.1875 -84.921875 L 31.171875 -84.921875 C 40.503906 -84.921875 47.75 -82.785156 52.90625 -78.515625 C 58.070312 -74.242188 60.65625 -67.921875 60.65625 -59.546875 Z M 47.1875 -59.75 C 47.1875 -64.082031 45.765625 -67.332031 42.921875 -69.5 C 40.078125 -71.675781 36.203125 -72.765625 31.296875 -72.765625 L 16.65625 -72.765625 L 16.65625 -46.53125 L 31.296875 -46.53125 C 36.203125 -46.53125 40.078125 -47.613281 42.921875 -49.78125 C 45.765625 -51.957031 47.1875 -55.28125 47.1875 -59.75 Z M 47.1875 -59.75 "/></g></g></g><g fill="#000000" fill-opacity="1"><g transform="translate(884.004967, 447.189883)"><g><path d="M -0.265625 -17.4375 C -0.265625 -21 0.6875 -24.113281 2.59375 -26.78125 C 4.507812 -29.445312 7.015625 -31.671875 10.109375 -33.453125 C 13.210938 -35.234375 16.769531 -36.566406 20.78125 -37.453125 C 24.800781 -38.335938 28.894531 -38.78125 33.0625 -38.78125 C 35.363281 -38.78125 37.335938 -38.738281 38.984375 -38.65625 C 40.628906 -38.570312 42.300781 -38.441406 44 -38.265625 L 44 -40.671875 C 44 -43.835938 42.769531 -46.203125 40.3125 -47.765625 C 37.863281 -49.328125 34.644531 -50.109375 30.65625 -50.109375 C 27.007812 -50.109375 23.296875 -49.597656 19.515625 -48.578125 C 15.742188 -47.554688 12.164062 -46.070312 8.78125 -44.125 L 3.3125 -54.671875 C 7.3125 -56.960938 11.597656 -58.769531 16.171875 -60.09375 C 20.742188 -61.414062 25.570312 -62.078125 30.65625 -62.078125 C 33.945312 -62.078125 37.1875 -61.707031 40.375 -60.96875 C 43.570312 -60.238281 46.4375 -59.023438 48.96875 -57.328125 C 51.507812 -55.640625 53.535156 -53.4375 55.046875 -50.71875 C 56.566406 -48.007812 57.328125 -44.660156 57.328125 -40.671875 L 57.328125 0 L 44 0 L 44 -8.921875 C 41.863281 -5.617188 38.722656 -3.054688 34.578125 -1.234375 C 30.441406 0.585938 25.988281 1.5 21.21875 1.5 C 18.269531 1.5 15.484375 1.097656 12.859375 0.296875 C 10.234375 -0.503906 7.960938 -1.707031 6.046875 -3.3125 C 4.140625 -4.925781 2.609375 -6.914062 1.453125 -9.28125 C 0.304688 -11.644531 -0.265625 -14.363281 -0.265625 -17.4375 Z M 24.671875 -10.546875 C 27.316406 -10.546875 29.796875 -10.878906 32.109375 -11.546875 C 34.429688 -12.222656 36.484375 -13.15625 38.265625 -14.34375 C 40.046875 -15.539062 41.445312 -16.984375 42.46875 -18.671875 C 43.488281 -20.367188 44 -22.238281 44 -24.28125 L 44 -26.546875 C 41.863281 -26.898438 39.863281 -27.097656 38 -27.140625 C 36.132812 -27.179688 34.488281 -27.203125 33.0625 -27.203125 C 26.46875 -27.203125 21.488281 -26.332031 18.125 -24.59375 C 14.757812 -22.863281 13.078125 -20.71875 13.078125 -18.15625 C 13.078125 -13.082031 16.941406 -10.546875 24.671875 -10.546875 Z M 24.671875 -10.546875 "/></g></g></g><g fill="#000000" fill-opacity="1"><g transform="translate(956.755572, 447.189883)"><g><path d="M 59.03125 -18.15625 C 59.03125 -14.207031 58.140625 -10.992188 56.359375 -8.515625 C 54.578125 -6.046875 52.285156 -4.050781 49.484375 -2.53125 C 46.691406 -1.019531 43.570312 0.0234375 40.125 0.609375 C 36.675781 1.203125 33.300781 1.5 30 1.5 C 24.488281 1.5 19 0.695312 13.53125 -0.90625 C 8.070312 -2.507812 3.34375 -4.613281 -0.65625 -7.21875 L 4.953125 -18.28125 C 9.722656 -15.507812 14.09375 -13.546875 18.0625 -12.390625 C 22.03125 -11.242188 26.007812 -10.671875 30 -10.671875 C 35.425781 -10.671875 39.375 -11.242188 41.84375 -12.390625 C 44.320312 -13.546875 45.5625 -15.144531 45.5625 -17.1875 C 45.5625 -18.175781 45.210938 -18.992188 44.515625 -19.640625 C 43.816406 -20.296875 42.664062 -20.894531 41.0625 -21.4375 C 39.457031 -21.976562 37.34375 -22.519531 34.71875 -23.0625 C 32.09375 -23.613281 28.828125 -24.191406 24.921875 -24.796875 C 21.796875 -25.316406 18.832031 -25.957031 16.03125 -26.71875 C 13.238281 -27.476562 10.78125 -28.550781 8.65625 -29.9375 C 6.53125 -31.320312 4.828125 -33.078125 3.546875 -35.203125 C 2.265625 -37.328125 1.625 -40 1.625 -43.21875 C 1.625 -46.46875 2.457031 -49.296875 4.125 -51.703125 C 5.800781 -54.109375 7.992188 -56.09375 10.703125 -57.65625 C 13.410156 -59.21875 16.457031 -60.34375 19.84375 -61.03125 C 23.226562 -61.726562 26.613281 -62.078125 30 -62.078125 C 34.769531 -62.078125 39.398438 -61.457031 43.890625 -60.21875 C 48.378906 -58.988281 52.316406 -57.222656 55.703125 -54.921875 L 50.375 -44.515625 C 46.988281 -46.640625 43.703125 -48.082031 40.515625 -48.84375 C 37.328125 -49.601562 33.820312 -49.984375 30 -49.984375 C 28.394531 -49.984375 26.722656 -49.894531 24.984375 -49.71875 C 23.253906 -49.539062 21.648438 -49.203125 20.171875 -48.703125 C 18.703125 -48.210938 17.476562 -47.539062 16.5 -46.6875 C 15.519531 -45.84375 15.03125 -44.816406 15.03125 -43.609375 C 15.03125 -41.992188 16.453125 -40.675781 19.296875 -39.65625 C 22.140625 -38.644531 26.988281 -37.640625 33.84375 -36.640625 C 37.570312 -36.117188 40.972656 -35.457031 44.046875 -34.65625 C 47.128906 -33.851562 49.773438 -32.765625 51.984375 -31.390625 C 54.203125 -30.023438 55.929688 -28.269531 57.171875 -26.125 C 58.410156 -23.976562 59.03125 -21.320312 59.03125 -18.15625 Z M 59.03125 -18.15625 "/></g></g></g><g fill="#000000" fill-opacity="1"><g transform="translate(1029.506178, 447.189883)"><g><path d="M 59.03125 -18.15625 C 59.03125 -14.207031 58.140625 -10.992188 56.359375 -8.515625 C 54.578125 -6.046875 52.285156 -4.050781 49.484375 -2.53125 C 46.691406 -1.019531 43.570312 0.0234375 40.125 0.609375 C 36.675781 1.203125 33.300781 1.5 30 1.5 C 24.488281 1.5 19 0.695312 13.53125 -0.90625 C 8.070312 -2.507812 3.34375 -4.613281 -0.65625 -7.21875 L 4.953125 -18.28125 C 9.722656 -15.507812 14.09375 -13.546875 18.0625 -12.390625 C 22.03125 -11.242188 26.007812 -10.671875 30 -10.671875 C 35.425781 -10.671875 39.375 -11.242188 41.84375 -12.390625 C 44.320312 -13.546875 45.5625 -15.144531 45.5625 -17.1875 C 45.5625 -18.175781 45.210938 -18.992188 44.515625 -19.640625 C 43.816406 -20.296875 42.664062 -20.894531 41.0625 -21.4375 C 39.457031 -21.976562 37.34375 -22.519531 34.71875 -23.0625 C 32.09375 -23.613281 28.828125 -24.191406 24.921875 -24.796875 C 21.796875 -25.316406 18.832031 -25.957031 16.03125 -26.71875 C 13.238281 -27.476562 10.78125 -28.550781 8.65625 -29.9375 C 6.53125 -31.320312 4.828125 -33.078125 3.546875 -35.203125 C 2.265625 -37.328125 1.625 -40 1.625 -43.21875 C 1.625 -46.46875 2.457031 -49.296875 4.125 -51.703125 C 5.800781 -54.109375 7.992188 -56.09375 10.703125 -57.65625 C 13.410156 -59.21875 16.457031 -60.34375 19.84375 -61.03125 C 23.226562 -61.726562 26.613281 -62.078125 30 -62.078125 C 34.769531 -62.078125 39.398438 -61.457031 43.890625 -60.21875 C 48.378906 -58.988281 52.316406 -57.222656 55.703125 -54.921875 L 50.375 -44.515625 C 46.988281 -46.640625 43.703125 -48.082031 40.515625 -48.84375 C 37.328125 -49.601562 33.820312 -49.984375 30 -49.984375 C 28.394531 -49.984375 26.722656 -49.894531 24.984375 -49.71875 C 23.253906 -49.539062 21.648438 -49.203125 20.171875 -48.703125 C 18.703125 -48.210938 17.476562 -47.539062 16.5 -46.6875 C 15.519531 -45.84375 15.03125 -44.816406 15.03125 -43.609375 C 15.03125 -41.992188 16.453125 -40.675781 19.296875 -39.65625 C 22.140625 -38.644531 26.988281 -37.640625 33.84375 -36.640625 C 37.570312 -36.117188 40.972656 -35.457031 44.046875 -34.65625 C 47.128906 -33.851562 49.773438 -32.765625 51.984375 -31.390625 C 54.203125 -30.023438 55.929688 -28.269531 57.171875 -26.125 C 58.410156 -23.976562 59.03125 -21.320312 59.03125 -18.15625 Z M 59.03125 -18.15625 "/></g></g></g><g fill="#000000" fill-opacity="1"><g transform="translate(1102.256784, 447.189883)"><g><path d="M 62.546875 -60.65625 L 53.421875 0 L 36.765625 0 L 30.390625 -36.515625 L 23.890625 0 L 7.21875 0 L -1.890625 -60.65625 L 11.328125 -60.65625 L 16.65625 -20.109375 L 23.171875 -60.65625 L 37.421875 -60.65625 L 44 -20.109375 L 49.328125 -60.65625 Z M 62.546875 -60.65625 "/></g></g></g><g fill="#000000" fill-opacity="1"><g transform="translate(1175.007389, 447.189883)"><g><path d="M 62.21875 -30.265625 C 62.21875 -25.535156 61.46875 -21.238281 59.96875 -17.375 C 58.46875 -13.507812 56.316406 -10.175781 53.515625 -7.375 C 50.722656 -4.582031 47.375 -2.40625 43.46875 -0.84375 C 39.5625 0.71875 35.203125 1.5 30.390625 1.5 C 25.660156 1.5 21.34375 0.71875 17.4375 -0.84375 C 13.53125 -2.40625 10.175781 -4.582031 7.375 -7.375 C 4.582031 -10.175781 2.4375 -13.507812 0.9375 -17.375 C -0.550781 -21.238281 -1.296875 -25.535156 -1.296875 -30.265625 C -1.296875 -34.859375 -0.550781 -39.117188 0.9375 -43.046875 C 2.4375 -46.972656 4.582031 -50.359375 7.375 -53.203125 C 10.175781 -56.046875 13.53125 -58.234375 17.4375 -59.765625 C 21.34375 -61.304688 25.660156 -62.078125 30.390625 -62.078125 C 35.203125 -62.078125 39.5625 -61.304688 43.46875 -59.765625 C 47.375 -58.234375 50.722656 -56.046875 53.515625 -53.203125 C 56.316406 -50.359375 58.46875 -46.972656 59.96875 -43.046875 C 61.46875 -39.117188 62.21875 -34.859375 62.21875 -30.265625 Z M 48.8125 -30.265625 C 48.8125 -32.992188 48.382812 -35.582031 47.53125 -38.03125 C 46.6875 -40.488281 45.460938 -42.582031 43.859375 -44.3125 C 42.253906 -46.050781 40.3125 -47.429688 38.03125 -48.453125 C 35.757812 -49.472656 33.210938 -49.984375 30.390625 -49.984375 C 27.523438 -49.984375 24.960938 -49.472656 22.703125 -48.453125 C 20.453125 -47.429688 18.546875 -46.050781 16.984375 -44.3125 C 15.421875 -42.582031 14.21875 -40.488281 13.375 -38.03125 C 12.53125 -35.582031 12.109375 -32.992188 12.109375 -30.265625 C 12.109375 -27.398438 12.53125 -24.796875 13.375 -22.453125 C 14.21875 -20.109375 15.421875 -18.046875 16.984375 -16.265625 C 18.546875 -14.484375 20.453125 -13.101562 22.703125 -12.125 C 24.960938 -11.15625 27.523438 -10.671875 30.390625 -10.671875 C 33.210938 -10.671875 35.757812 -11.15625 38.03125 -12.125 C 40.3125 -13.101562 42.253906 -14.484375 43.859375 -16.265625 C 45.460938 -18.046875 46.6875 -20.109375 47.53125 -22.453125 C 48.382812 -24.796875 48.8125 -27.398438 48.8125 -30.265625 Z M 48.8125 -30.265625 "/></g></g></g><g fill="#000000" fill-opacity="1"><g transform="translate(1247.757995, 447.189883)"><g><path d="M 59.15625 -46.265625 C 57.550781 -47.046875 55.910156 -47.640625 54.234375 -48.046875 C 52.566406 -48.460938 50.648438 -48.671875 48.484375 -48.671875 C 45.492188 -48.671875 42.6875 -48.226562 40.0625 -47.34375 C 37.4375 -46.457031 35.164062 -45.125 33.25 -43.34375 C 31.34375 -41.5625 29.859375 -39.335938 28.796875 -36.671875 C 27.734375 -34.003906 27.203125 -30.847656 27.203125 -27.203125 L 27.203125 -12.109375 L 40.796875 -12.109375 L 40.796875 0 L 0 0 L 0 -12.109375 L 13.734375 -12.109375 L 13.734375 -48.484375 L 0 -48.484375 L 0 -60.65625 L 27.203125 -60.65625 L 27.203125 -45.421875 C 29.410156 -51.492188 32.671875 -55.785156 36.984375 -58.296875 C 41.304688 -60.816406 46.441406 -62.078125 52.390625 -62.078125 C 54.253906 -62.078125 56.203125 -61.878906 58.234375 -61.484375 C 60.273438 -61.097656 62.273438 -60.410156 64.234375 -59.421875 Z M 59.15625 -46.265625 "/></g></g></g><g fill="#000000" fill-opacity="1"><g transform="translate(1320.5086, 447.189883)"><g><path d="M 57.46875 0 L 44 0 L 44 -5.59375 C 41.394531 -3.289062 38.769531 -1.53125 36.125 -0.3125 C 33.476562 0.894531 30.460938 1.5 27.078125 1.5 C 23.171875 1.5 19.546875 0.71875 16.203125 -0.84375 C 12.859375 -2.40625 9.984375 -4.582031 7.578125 -7.375 C 5.171875 -10.175781 3.285156 -13.53125 1.921875 -17.4375 C 0.554688 -21.34375 -0.125 -25.617188 -0.125 -30.265625 C -0.125 -34.859375 0.554688 -39.117188 1.921875 -43.046875 C 3.285156 -46.972656 5.171875 -50.332031 7.578125 -53.125 C 9.984375 -55.925781 12.859375 -58.117188 16.203125 -59.703125 C 19.546875 -61.285156 23.171875 -62.078125 27.078125 -62.078125 C 30.460938 -62.078125 33.476562 -61.503906 36.125 -60.359375 C 38.769531 -59.210938 41.394531 -57.488281 44 -55.1875 L 44 -72.765625 L 32.28125 -72.765625 L 32.28125 -84.921875 L 57.46875 -84.921875 Z M 44 -44.515625 C 42.382812 -46.296875 40.304688 -47.648438 37.765625 -48.578125 C 35.234375 -49.515625 32.816406 -49.984375 30.515625 -49.984375 C 25.441406 -49.984375 21.3125 -48.160156 18.125 -44.515625 C 14.9375 -40.867188 13.34375 -36.117188 13.34375 -30.265625 C 13.34375 -24.398438 14.9375 -19.664062 18.125 -16.0625 C 21.3125 -12.46875 25.441406 -10.671875 30.515625 -10.671875 C 32.816406 -10.671875 35.234375 -11.132812 37.765625 -12.0625 C 40.304688 -13 42.382812 -14.359375 44 -16.140625 Z M 44 -44.515625 "/></g></g></g><g clip-path="url(#6d3ace7c48)"><path fill="#100f0d" d="M 132.429688 379.6875 L 168.917969 379.6875 L 168.917969 361.96875 C 168.917969 354.480469 165.570312 348.261719 158.476562 345.410156 C 156.011719 344.417969 153.328125 343.949219 150.671875 343.949219 C 148.015625 343.949219 145.335938 344.417969 142.867188 345.410156 C 135.773438 348.261719 132.429688 354.480469 132.429688 361.96875 L 132.429688 374.257812 L 113.894531 374.257812 L 113.894531 361.96875 C 113.894531 346.710938 121.714844 333.964844 135.96875 328.238281 C 140.628906 326.367188 145.65625 325.421875 150.671875 325.421875 C 155.6875 325.421875 160.714844 326.367188 165.371094 328.238281 C 179.628906 333.964844 187.453125 346.710938 187.453125 361.96875 L 187.453125 379.925781 C 192.632812 380.996094 196.542969 385.59375 196.542969 391.082031 L 196.542969 453.695312 C 196.542969 459.972656 191.425781 465.085938 185.144531 465.085938 L 116.199219 465.085938 C 109.917969 465.085938 104.800781 459.972656 104.800781 453.695312 L 104.800781 391.082031 C 104.800781 385.59375 108.714844 380.996094 113.894531 379.925781 L 113.894531 379.6875 L 132.429688 379.6875 " fill-opacity="1" fill-rule="evenodd"/></g><path fill="#cdccca" d="M 182.015625 361.863281 L 182.015625 379.6875 L 174.347656 379.6875 L 174.347656 361.863281 C 174.347656 350.582031 168.273438 343.390625 160.503906 340.269531 C 157.425781 339.03125 154.058594 338.414062 150.671875 338.414062 C 147.285156 338.414062 143.917969 339.03125 140.839844 340.269531 C 133.070312 343.390625 126.996094 350.582031 126.996094 361.863281 L 126.996094 368.691406 L 119.328125 368.691406 L 119.328125 361.863281 C 119.328125 346.957031 127.515625 337.382812 137.996094 333.175781 C 142.015625 331.558594 146.359375 330.75 150.671875 330.75 C 154.984375 330.75 159.324219 331.558594 163.347656 333.175781 C 173.828125 337.382812 182.015625 346.957031 182.015625 361.863281 " fill-opacity="1" fill-rule="evenodd"/><path fill="#cdccca" d="M 150.671875 407.703125 C 156.222656 407.703125 160.71875 412.199219 160.71875 417.746094 C 160.71875 421.5 158.660156 424.769531 155.605469 426.492188 L 155.605469 435.542969 C 155.605469 442.0625 145.738281 442.066406 145.738281 435.542969 L 145.738281 426.496094 C 142.6875 424.769531 140.625 421.5 140.625 417.746094 C 140.625 412.199219 145.125 407.703125 150.671875 407.703125 Z M 116.199219 385.121094 L 185.144531 385.121094 C 188.425781 385.121094 191.109375 387.800781 191.109375 391.082031 L 191.109375 453.695312 C 191.109375 456.972656 188.425781 459.65625 185.144531 459.65625 L 116.199219 459.65625 C 112.917969 459.65625 110.234375 456.972656 110.234375 453.695312 L 110.234375 391.082031 C 110.234375 387.800781 112.917969 385.121094 116.199219 385.121094 " fill-opacity="1" fill-rule="evenodd"/><path fill="#979898" d="M 116.199219 386.800781 C 113.847656 386.800781 111.917969 388.730469 111.917969 391.082031 L 111.917969 396.125 C 116.15625 395.167969 120.59375 394.65625 125.164062 394.65625 C 155.285156 394.65625 179.699219 416.78125 179.699219 444.074219 C 179.699219 448.902344 178.933594 453.566406 177.507812 457.976562 L 185.144531 457.976562 C 187.496094 457.976562 189.429688 456.046875 189.429688 453.695312 L 189.429688 391.082031 C 189.429688 388.730469 187.496094 386.800781 185.144531 386.800781 L 116.199219 386.800781 " fill-opacity="1" fill-rule="evenodd"/><path fill="#100f0d" d="M 77.46875 411.808594 C 70.546875 415.800781 68.179688 424.640625 72.175781 431.554688 C 76.167969 438.472656 85.011719 440.839844 91.929688 436.847656 C 98.851562 432.855469 101.222656 424.015625 97.226562 417.101562 C 93.230469 410.183594 84.386719 407.816406 77.46875 411.808594 Z M 109.195312 397.628906 L 164.457031 365.742188 L 180.402344 393.34375 L 164.566406 402.480469 L 162.839844 399.488281 L 149.992188 406.902344 L 146.660156 401.136719 L 120.082031 416.472656 C 123.480469 431.707031 116.65625 447.707031 102.816406 455.691406 C 85.488281 465.691406 63.324219 459.753906 53.320312 442.4375 C 43.316406 425.117188 49.253906 402.964844 66.582031 392.964844 C 80.417969 384.980469 97.695312 387.070312 109.195312 397.628906 " fill-opacity="1" fill-rule="evenodd"/><path fill="#fab30b" d="M 74.75 407.105469 C 84.265625 401.613281 96.4375 404.875 101.929688 414.386719 C 107.425781 423.898438 104.164062 436.058594 94.648438 441.550781 C 85.132812 447.042969 72.960938 443.78125 67.46875 434.273438 C 61.972656 424.761719 65.234375 412.597656 74.75 407.105469 Z M 69.300781 397.667969 C 82.421875 390.097656 98.796875 393.273438 108.230469 404.460938 L 162.46875 373.164062 L 165.191406 377.878906 L 167.921875 382.597656 L 172.976562 391.355469 L 166.554688 395.0625 L 161.496094 386.304688 L 155.074219 390.011719 L 158.40625 395.777344 L 151.980469 399.484375 L 148.652344 393.71875 L 113.683594 413.894531 C 118.660156 427.65625 113.21875 443.417969 100.101562 450.988281 C 85.367188 459.488281 66.53125 454.441406 58.027344 439.722656 C 49.519531 424.996094 54.566406 406.167969 69.300781 397.667969 " fill-opacity="1" fill-rule="evenodd"/><path fill="#dc7f18" d="M 152.597656 397.1875 L 156.109375 395.164062 L 152.777344 389.398438 L 162.109375 384.007812 L 167.171875 392.765625 L 170.679688 390.742188 L 163.738281 378.71875 L 103.386719 413.542969 C 109.347656 423.859375 105.808594 437.050781 95.488281 443.003906 C 85.167969 448.960938 71.96875 445.425781 66.011719 435.113281 L 59.484375 438.878906 C 67.523438 452.800781 85.332031 457.570312 99.257812 449.53125 C 111.457031 442.492188 116.886719 427.691406 112.101562 414.46875 L 111.621094 413.144531 L 149.265625 391.421875 L 152.597656 397.1875 " fill-opacity="1" fill-rule="evenodd"/></svg>